<svg width="256" height="256" viewBox="0 0 240 240" fill="none" xmlns="http://www.w3.org/2000/svg">
  <circle cx="120" cy="120" r="114" fill="#0D5962"/>
  <circle cx="120" cy="120" r="99" fill="#F5E9D4" stroke="#C8A257" stroke-width="6"/>
  <circle cx="120" cy="120" r="77" fill="#FBF5E8"/>
  <path d="M58 146c12-17 24-30 34-30 8 0 13 10 20 10 9 0 16-15 27-15 11 0 17 16 28 16 10 0 16-12 23-12 10 0 20 12 32 31H58Z" fill="#5E8D7A"/>
  <path d="M54 157c18 8 44 13 66 13 22 0 48-5 66-13v20H54v-20Z" fill="#7FB8B2"/>
  <path d="M119 183c-8-13-12-22-12-30 8 5 12 10 12 14 0-4 4-9 12-14 0 8-4 17-12 30Z" fill="#D8A85A"/>
  <path d="M94 187c-9-7-15-15-18-24 10 1 18 4 24 10-1 5-3 10-6 14Z" fill="#D8A85A"/>
  <path d="M146 187c3-4 5-9 6-14 6-6 14-9 24-10-3 9-9 17-18 24Z" fill="#D8A85A"/>
  <path d="M120 101c10 0 18 8 18 18 0 8-5 14-10 19 8 4 15 12 19 24l-12 6c-4-14-9-22-15-22s-11 8-15 22l-12-6c4-12 11-20 19-24-5-5-10-11-10-19 0-10 8-18 18-18Z" fill="#0D5962"/>
  <path d="M106 93c0-7 6-13 14-13s14 6 14 13-6 13-14 13-14-6-14-13Z" fill="#0D5962"/>
  <path d="M120 82c9-14 14-29 14-43 12 16 13 34 6 47 12-11 26-17 42-18-13 15-28 24-43 25 15 5 27 13 36 24-18-4-33-12-44-24 4 18 2 35-7 50-9-15-11-32-7-50-11 12-26 20-44 24 9-11 21-19 36-24-15-1-30-10-43-25 16 1 30 7 42 18-7-13-6-31 6-47 0 14 5 29 14 43Z" fill="#0D5962"/>
</svg>
