<svg xmlns="http://www.w3.org/2000/svg" viewBox="0 0 800 560" fill="none">
  <rect width="800" height="560" rx="40" fill="#F8EFE4"/>
  <ellipse cx="401" cy="488" rx="250" ry="36" fill="#E6D7C5"/>
  <rect x="270" y="168" width="260" height="220" rx="36" fill="#FFF8F1" stroke="#D3B58B" stroke-width="8"/>
  <rect x="314" y="132" width="172" height="58" rx="18" fill="#7A1F17"/>
  <path d="M320 300c34-70 77-118 129-144 9-4 18 6 14 15-27 61-66 108-118 142-11 7-31 0-25-13Z" fill="#7FBA8C"/>
  <path d="M410 218c11 40 9 77-6 112" stroke="#7A1F17" stroke-width="11" stroke-linecap="round"/>
  <path d="M394 235c-27 24-47 53-59 87" stroke="#7A1F17" stroke-width="9" stroke-linecap="round"/>
  <circle cx="408" cy="215" r="19" fill="#D6A76E"/>
</svg>
